<?xml version="1.0" ?><svg viewBox="0 0 62 42.6" xmlns="http://www.w3.org/2000/svg"><title/><path d="M66,41.2a6,6,0,0,1-6,6.1H10a6,6,0,0,1-6-6.1V10.8a6,6,0,0,1,6-6.1H60a6,6,0,0,1,6,6.1Z" style="fill: #4758a9" transform="translate(-4 -4.7)"/><path d="M66,10.8a6.1,6.1,0,0,0-2.13-4.66L4,40.7v.5a6.1,6.1,0,0,0,2.13,4.66L66,11.3Z" style="fill: #f9f9f9" transform="translate(-4 -4.7)"/><path d="M5.57,45.34,36,27.8,35,26.22,4.57,43.8A6.37,6.37,0,0,0,5.57,45.34Z" style="fill: #ed5565" transform="translate(-4 -4.7)"/><path d="M64.63,6.92l-29.38,17,.91,1.58,29.4-17A6.26,6.26,0,0,0,64.63,6.92Z" style="fill: #ed5565" transform="translate(-4 -4.7)"/><path d="M6.13,6.14A6.1,6.1,0,0,0,4,10.8v.5L63.87,45.86A6.1,6.1,0,0,0,66,41.2v-.5Z" style="fill: #f9f9f9" transform="translate(-4 -4.7)"/><path d="M66,41.93,37,25.18,36,26.76l29.42,17A6.23,6.23,0,0,0,66,41.93Z" style="fill: #ed5565" transform="translate(-4 -4.7)"/><path d="M4,10.43,33.29,27.34l.92-1.59L4.41,8.55A6.19,6.19,0,0,0,4,10.43Z" style="fill: #ed5565" transform="translate(-4 -4.7)"/><polygon points="62 17.34 35.05 17.34 35.05 0 26.95 0 26.95 17.34 0 17.34 0 25.26 26.95 25.26 26.95 42.6 35.05 42.6 35.05 25.26 62 25.26 62 17.34" style="fill: #f9f9f9"/><g><rect height="3.82" style="fill: #ed5565" width="62" y="19.39"/><rect height="3.82" style="fill: #ed5565" transform="translate(5 56.3) rotate(-90)" width="42.6" x="13.7" y="24.09"/></g></svg>